<svg xmlns="http://www.w3.org/2000/svg" viewBox="0 0 24 24" role="img" aria-labelledby="title desc">
  <title id="title">GitHub icon</title>
  <desc id="desc">A dark circle with the GitHub Octocat silhouette.</desc>
  <circle cx="12" cy="12" r="11" fill="#111827"/>
  <path d="M12 5.3a6.7 6.7 0 0 0-2.1 13.1c.3.1.4-.1.4-.3v-1.2c-1.7.4-2-.7-2-.7-.3-.8-.7-1- .7-1-.6 0 0-.6 0-.6.7 0 1.1.7 1.1.7.6 1 1.6.7 2 .6.1-.4.2-.7.4-.9-1.4-.2-2.9-.7-2.9-3.1 0-.7.2-1.3.7-1.8-.1-.2-.3-.8.1-1.7 0 0 .6-.2 1.9.7a6.5 6.5 0 0 1 3.4 0c1.3-.9 1.9-.7 1.9-.7.4.9.2 1.5.1 1.7.4.5.7 1.1.7 1.8 0 2.4-1.5 2.9-2.9 3.1.2.2.4.6.4 1.3v1.9c0 .2.1.4.4.3A6.7 6.7 0 0 0 12 5.3Z" fill="#fff"/>
</svg>
