<svg xmlns="http://www.w3.org/2000/svg" viewBox="0 0 24 24" role="img" aria-labelledby="title desc">
  <title id="title">Website icon</title>
  <desc id="desc">A globe icon representing a website.</desc>
  <circle cx="12" cy="12" r="10" fill="#2563eb"/>
  <path d="M12 4.5c2.1 2 3.3 4.7 3.5 7.5H8.5c.2-2.8 1.4-5.5 3.5-7.5Zm-4 7.5h8c-.2 2.8-1.4 5.5-4 7.5-2.6-2-3.8-4.7-4-7.5Zm-2.4 0c.1 1.7.7 3.3 1.7 4.7A8 8 0 0 1 4 12c.5-1.8 1.6-3.4 3.3-4.7-.9 1.4-1.6 3-1.7 4.7Zm11.1 4.7c1-1.4 1.6-3 1.7-4.7-.1-1.7-.7-3.3-1.7-4.7A8 8 0 0 1 20 12a8 8 0 0 1-3.3 4.7Z" fill="#fff"/>
</svg>
